<svg width="89" height="118" viewBox="0 0 89 118" fill="none" xmlns="http://www.w3.org/2000/svg">
<path fill-rule="evenodd" clip-rule="evenodd" d="M89 29.5C89 13.2076 75.7924 0 59.5 0C59.333 0 59.1663 0.00138752 59 0.00415171V3.55244e-05L3.8147e-06 3.29454e-05L0 59H59V58.9958C59.1663 58.9986 59.333 59 59.5 59C75.7924 59 89 45.7924 89 29.5ZM59 58.9958L59 0.00415171C42.9382 0.271071 30 13.3746 30 29.5C30 45.6254 42.9382 58.7289 59 58.9958Z" fill="#C7DEDC"/>
<path fill-rule="evenodd" clip-rule="evenodd" d="M89 88.5C89 72.2076 75.7924 59 59.5 59C59.333 59 59.1663 59.0014 59 59.0042L59 59H0V118H59V117.996C59.1663 117.999 59.333 118 59.5 118C75.7924 118 89 104.792 89 88.5ZM59 117.996L59 59.0042C42.9382 59.2711 30 72.3746 30 88.5C30 104.625 42.9382 117.729 59 117.996Z" fill="#C7DEDC"/>
</svg>
